<?xml version="1.0" encoding="iso-8859-1"?>
<!-- Generator: Adobe Illustrator 19.0.0, SVG Export Plug-In . SVG Version: 6.00 Build 0)  -->
<svg version="1.1" id="Capa_1" xmlns="http://www.w3.org/2000/svg" xmlns:xlink="http://www.w3.org/1999/xlink" x="0px" y="0px"
	 viewBox="0 0 512 512" style="enable-background:new 0 0 512 512;" xml:space="preserve">
<path style="fill:#FF9D4A;" d="M455.16,68.406c-1.359-2.699-4.123-4.401-7.146-4.401H63.985c-3.021,0-5.785,1.702-7.146,4.401
	c-1.359,2.698-1.082,5.933,0.716,8.361l160.012,216.016c1.509,2.037,3.894,3.238,6.429,3.238h64.005c2.535,0,4.92-1.201,6.429-3.238
	L454.444,76.767C456.242,74.34,456.519,71.105,455.16,68.406z"/>
<path style="fill:#F48A16;" d="M241.57,292.784L81.557,76.768c-1.798-2.428-2.075-5.662-0.716-8.361
	c1.36-2.7,4.124-4.402,7.146-4.402H63.985c-3.021,0-5.785,1.702-7.146,4.401c-1.359,2.698-1.082,5.933,0.716,8.361l160.012,216.016
	c1.509,2.037,3.894,3.238,6.429,3.238h24.002C245.464,296.023,243.079,294.821,241.57,292.784z"/>
<path style="fill:#FFB577;" d="M215.997,504.038c0,6.449,7.62,10.288,12.801,6.4l64.005-48.004c2.015-1.511,3.2-3.883,3.2-6.4
	V288.022h-80.006L215.997,504.038L215.997,504.038z"/>
<path style="fill:#FF9D4A;" d="M239.999,288.022h-24.002v216.016c0,6.449,7.62,10.288,12.801,6.4l11.201-8.401V288.022z"/>
<path style="fill:#FFB577;" d="M448.014,0H63.985c-4.418,0-8.001,3.582-8.001,8.001v64.005c0,4.418,3.582,8.001,8.001,8.001h384.029
	c4.418,0,8.001-3.582,8.001-8.001V8.001C456.015,3.582,452.433,0,448.014,0z"/>
<path style="fill:#FF9D4A;" d="M79.986,72.005V8.001C79.986,3.582,83.569,0,87.987,0H63.985c-4.418,0-8.001,3.582-8.001,8.001
	v64.005c0,4.418,3.582,8.001,8.001,8.001h24.002C83.569,80.006,79.986,76.424,79.986,72.005z"/>
<g>
	<path style="fill:#725E63;" d="M256,336.026c0-4.418-3.582-8.001-8.001-8.001h-32.002v16.001h32.002
		C252.418,344.026,256,340.444,256,336.026z"/>
	<path style="fill:#725E63;" d="M256,384.029c0-4.418-3.582-8.001-8.001-8.001h-32.002v16.001h32.002
		C252.418,392.03,256,388.448,256,384.029z"/>
	<path style="fill:#725E63;" d="M256,432.033c0-4.418-3.582-8.001-8.001-8.001h-32.002v16.001h32.002
		C252.418,440.034,256,436.451,256,432.033z"/>
</g>
<g>
</g>
<g>
</g>
<g>
</g>
<g>
</g>
<g>
</g>
<g>
</g>
<g>
</g>
<g>
</g>
<g>
</g>
<g>
</g>
<g>
</g>
<g>
</g>
<g>
</g>
<g>
</g>
<g>
</g>
</svg>
